PathFileType	4	(X/Y/Z)	Patient5_TMGait_0pt45_1_right_06.trc.trc
DataRate	CameraRate	NumFrames	NumMarkers	Units	OrigDataRate	OrigDataStartFrame	OrigNumFrames
63.636363636364	63.636363636364	4	32	mm	63.636363636364	18	       141
Frame#	Time	R.ASIS			L.ASIS			Chest			R.Shoulder			Neck			L.Shoulder			L.Elbow			L.Wrist			R.Elbow			R.Wrist			L.Thigh.Superior			L.Thigh.Lateral			L.Thigh.Inferior			L.Patella			L.Shank.Superior			L.Shank.Lateral			L.Shank.Inferior			L.Heel			L.Midfoot.Lateral			L.Midfoot.Superior			L.Toe			R.Thigh.Superior			R.Thigh.Lateral			R.Thigh.Inferior			R.Patella			R.Shank.Superior			R.Shank.Lateral			R.Shank.Inferior			R.Heel			R.Midfoot.Lateral			R.Midfoot.Superior			R.Toe			
		X1	Y1	Z1	X2	Y2	Z2	X3	Y3	Z3	X4	Y4	Z4	X5	Y5	Z5	X6	Y6	Z6	X7	Y7	Z7	X8	Y8	Z8	X9	Y9	Z9	X10	Y10	Z10	X11	Y11	Z11	X12	Y12	Z12	X13	Y13	Z13	X14	Y14	Z14	X15	Y15	Z15	X16	Y16	Z16	X17	Y17	Z17	X18	Y18	Z18	X19	Y19	Z19	X20	Y20	Z20	X21	Y21	Z21	X22	Y22	Z22	X23	Y23	Z23	X24	Y24	Z24	X25	Y25	Z25	X26	Y26	Z26	X27	Y27	Z27	X28	Y28	Z28	X29	Y29	Z29	X30	Y30	Z30	X31	Y31	Z31	X32	Y32	Z32	

18	9.887142857143	955.204942524938	998.973402021209	537.231016094049	947.151442083563	959.855365577597	294.988825203107	1006.763834452567	1438.424186572400	424.500866362868	893.450451279133	1504.128775355557	582.414318801043	887.271282263737	1561.957335144334	397.358634051682	964.610998614143	1504.491840747831	224.881767431537	932.882297293229	1178.690978749320	96.078225845230	1083.200269419010	933.417779526407	107.544515797448	781.790194503552	1191.219921532763	716.677789814959	991.828836296981	994.541873592535	677.410857992537	931.652813398712	732.274854184199	299.568862611355	840.551896143575	674.230448946214	265.488659438680	900.427341603662	604.872051825347	324.238219081574	868.997983545463	490.860746572135	331.161091480690	808.358539585751	398.937177473023	358.517205457087	722.045227408611	342.856605954427	289.321204060252	757.776949283746	282.942821603808	373.749070735436	590.691836767475	61.781026446846	389.159282144157	675.663105931243	31.990845388245	327.210878430804	776.408999324190	89.609069262120	363.763483080878	880.202256002122	44.243586067422	367.977873313872	1027.543060179328	792.420229077404	574.712254082602	977.690751168098	700.156552539624	639.513822701367	1068.808804453821	669.827221421009	566.717705034833	1103.303758033173	576.700256183548	607.376386986776	1073.584718083137	463.626475508520	575.282244883650	1006.350071960115	390.444334718931	656.540751475962	1068.909469290735	323.304917290860	578.533417727728	969.235293151417	91.432590912105	551.750728675637	1051.165739730925	57.764210840460	620.154943522951	1150.539815612269	134.329983386938	610.881882551068	1257.127125110459	99.516675866557	604.359761170376	
19	9.902857142857	957.972213344847	996.062603569288	539.122914872794	947.897784639538	958.905342985973	296.244319520112	1007.008278842823	1437.144235289923	426.981692557257	895.303689764792	1502.033391725162	586.350274047068	886.660022145124	1560.302005943221	401.512898763799	962.146278384392	1503.496993673907	227.830185955294	927.093091421553	1178.480398606374	97.961421440273	1075.084874941979	931.589423635055	106.616062645655	786.406534974502	1188.891272502800	721.886723114733	996.219837702095	992.708953000066	679.016291306123	930.247750141115	731.111491418805	300.131174417245	838.417865517674	673.901163501443	266.282493172801	897.963816238399	603.923340029817	324.642223357911	865.137238855443	489.962622043335	331.424663006580	803.855511021602	398.549326350274	358.795218175247	716.720480245069	343.404506720281	289.895835489574	752.366968686681	283.123008960587	374.197703074625	583.795611990534	62.549468417300	389.263141198155	668.598648960944	32.457135120987	327.263795811471	769.471449252621	89.641768441910	363.622907379328	873.017394605901	44.258822092201	367.905293381966	1027.172447594448	786.404946092968	574.955195101149	974.943410209266	694.115980104489	638.629744714566	1065.905559570476	663.133173634863	565.866237341882	1098.374151279489	569.551605209048	605.758986014667	1069.286013956739	457.417384937070	572.625073102686	1001.520955203765	383.457167924283	652.817593805838	1065.183859446332	317.009285040351	575.050242038785	966.502226601073	85.383214223167	545.765643105445	1047.981930417849	50.936702589841	614.301898052102	1147.457496281838	127.555015360219	606.564802126387	1254.077883289472	92.725741611861	600.294488551768	
20	9.918571428571	961.141958436411	992.904340838164	541.315536788048	948.886082129174	957.681897412884	297.606972005088	1007.476659972284	1435.652173640143	429.690306193797	897.344995428238	1499.637318616416	590.487178498034	886.247877737615	1558.392018138827	405.930257767839	959.893852806626	1502.315916891578	231.065532872394	921.478937438887	1178.254257936376	99.912165064617	1066.818453758976	929.573201811768	105.649127703013	791.213367186423	1186.150608503053	727.057144192501	1000.953052716071	990.684779465237	680.673568282501	929.073745570663	729.719596308735	300.728543385799	836.512539631606	673.357458525008	267.201850807747	895.800859690306	602.732401768976	325.067849090381	861.613896676600	488.793535615427	331.764312467212	799.621724654952	397.914109307547	359.185571571933	711.642696386185	343.776962705701	290.585672755568	747.100106042471	283.218158643008	374.932846496305	576.872532899310	63.225911103546	389.406922113908	661.513942454261	32.914143796829	327.338363485261	762.490671924907	89.660022728755	363.528099957629	865.813829427725	44.271584358956	367.831315150768	1026.690934045942	779.938058152843	575.295857594047	971.831717072555	687.796736519036	637.664863658743	1062.635355000507	656.006799639861	564.956478489993	1092.911689657483	561.982110578927	604.016933951149	1064.425556969278	450.892167700989	569.833506533509	996.067441013007	376.228109661739	648.938607550520	1060.828163880815	310.416465214237	571.449102781663	963.015887663604	79.191881095054	539.765843997185	1043.922945939576	44.196609383737	608.617910503407	1143.660144498089	120.563602144892	601.965797643244	1250.245556893039	85.464015242437	596.163719083099	
21	9.934285714286	964.559523009503	989.472218016116	543.652047387087	950.122036166141	956.191862452222	299.099111519471	1008.178715262202	1433.968525442460	432.622359276481	899.588591682087	1496.957018775977	594.819304728681	886.050604230963	1556.250711802467	410.601087614629	957.828207991536	1500.949910279626	234.574253591620	916.029227176497	1177.992823597988	101.947469983353	1058.444243754204	927.401896462999	104.693706575119	796.202806420230	1182.981237149522	732.148901847899	1005.995125133698	988.401934620818	682.426087463092	928.237788405031	728.104446281411	301.417361441646	834.960131840706	672.561158975414	268.272135258384	894.079552216554	601.287008942095	325.562018277701	858.577287414708	487.289614422860	332.215794865640	795.770067928140	396.976835253852	359.712609279643	706.935308436397	343.942489156807	291.370158059607	742.044812103853	283.171888391335	375.932317178136	569.915260483923	63.832391221134	389.579682759593	654.411253667577	33.373902221236	327.431029022116	755.471356059816	89.678932212129	363.482620978773	858.596153231818	44.280689378404	367.756143911466	1026.125254984862	773.198189332890	575.744300216570	968.456848502518	681.390810749657	636.669968077550	1059.093781782916	648.677727066524	564.007651415845	1087.109511964328	554.229920058819	602.148240697658	1059.156265181809	444.262588764305	566.919998096173	990.215901290653	368.982717893599	644.984202027023	1055.969917829001	303.742733676867	567.737996267582	958.839084112566	73.058115207238	533.876281043774	1039.061336906761	37.916949034713	603.289433450771	1139.236682691382	113.663857966676	597.016545672621	1245.711919569594	78.002853627734	591.961612889124	
